{"title":"KICK (2014) - 1CD - DVDSCR-Rip - Hindi - x264 - MP3 - Mafiaking","uid":10641349,"size":740538012,"categoryP":"video","categoryS":"other","magnet":"?xt=urn:btih:f122c0dd274a642fac774fafb60f3d36c3b1de1a&amp;dn=KICK+%282014%29+-+1CD+-+DVDSCR-Rip+-+Hindi+-+x264+-+MP3+-+Mafiaking+&amp;tr=udp%3A%2F%2Ftracker.openbittorrent.com%3A80&amp;tr=udp%3A%2F%2Fopen.demonii.com%3A1337&amp;tr=udp%3A%2F%2Ftracker.coppersurfer.tk%3A6969&amp;tr=udp%3A%2F%2Fexodus.desync.com%3A6969","seeders":1,"leechers":1,"uploader":null,"files":3,"time":1406459413,"description":"KICK (2014) - 1CD - DVDSCR-Rip - Hindi - x264 - MP3 - Mafiaking - TeamTNT ExClusive\n\n\nGENRE: Action | Comedy | Romance\n\n\nGeneral\n\nComplete name : KICK (2014) - 1CD - DVDSCR-Rip - Hindi - x264 - MP3 - \n\nMafiaking - TeamTNT ExClusive.mkv\n\n\nFormat : Matroska\nFormat version : Version 4 / Version 2\nFile size : 704 MiB\nDuration : 2h 25mn\nOverall bit rate : 675 Kbps\nMovie name : KICK (2014) - 1CD - DVDSCR-Rip - Hindi - x264 - MP3 - Mafiaking - TeamTNT ExClusive\nEncoded date : UTC 2014-07-26 10:50:02\nWriting application : mkvmerge v7.0.0 ('Where We Going') 32bit built on Jun 9 2014 15:08:34\nWriting library : libebml v1.3.0 + libmatroska v1.4.1\n\n\nVideo\nID : 1\nFormat : AVC\nFormat/Info : Advanced Video Codec\nFormat profile : &lt;a class=&quot;__cf_email__&quot; href=&quot;/cdn-cgi/l/email-protection&quot; data-cfemail=&quot;eca4858b84aca0dec2dd&quot;&gt;[email&amp;#160;protected]&lt;/a&gt;&lt;script cf-hash='f9e31' type=&quot;text/javascript&quot;&gt;\n/* &lt;![CDATA[ */!function(){try{var t=&quot;currentScript&quot;in document?document.currentScript:function(){for(var t=document.getElementsByTagName(&quot;script&quot;),e=t.length;e--;)if(t[e].getAttribute(&quot;cf-hash&quot;))return t[e]}();if(t&amp;&amp;t.previousSibling){var e,r,n,i,c=t.previousSibling,a=c.getAttribute(&quot;data-cfemail&quot;);if(a){for(e=&quot;&quot;,r=parseInt(a.substr(0,2),16),n=2;a.length-n;n+=2)i=parseInt(a.substr(n,2),16)^r,e+=String.fromCharCode(i);e=document.createTextNode(e),c.parentNode.replaceChild(e,c)}}}catch(u){}}();/* ]]&gt; */&lt;/script&gt;\nFormat settings, CABAC : Yes\nFormat settings, ReFrames : 4 frames\nCodec ID : V_MPEG4/ISO/AVC\nDuration : 2h 25mn\nBit rate : 609 Kbps\nWidth : 640 pixels\nHeight : 272 pixels\nDisplay aspect ratio : 2.35:1\nFrame rate mode : Constant\nFrame rate : 23.976 fps\nColor space : YUV\nChroma subsampling : 4:2:0\nBit depth : 8 bits\nScan type : Progressive\nBits/(Pixel*Frame) : 0.146\nStream size : 624 MiB (89%)\nTitle : Mafiaking TeamTNT\nLanguage : Hindi\nDefault : Yes\nForced : No\n\n\nAudio\nID : 2\nFormat : MPEG Audio\nFormat version : Version 2\nFormat profile : Layer 3\nMode : Joint stereo\nMode extension : MS Stereo\nCodec ID : A_MPEG/L3\nCodec ID/Hint : MP3\nDuration : 2h 25mn\nBit rate mode : Constant\nBit rate : 64.0 Kbps\nChannel(s) : 2 channels\nSampling rate : 24.0 KHz\nCompression mode : Lossy\nStream size : 66.8 MiB (9%)\nTitle : Mafiaking TeamTNT\nWriting library : LAME3.99r\nLanguage : Hindi\nDefault : Yes\nForced : No\n\nScreen:\n\n &lt;a href=&quot;\nhttp://imgfun.biz/x/img-53d4c12251e91.html&quot; rel=&quot;nofollow&quot; target=&quot;_NEW&quot;&gt;\nhttp://imgfun.biz/x/img-53d4c12251e91.html&lt;/a&gt;\n\n &lt;a href=&quot;\nhttp://imgfun.biz/x/img-53d4c19570814.html&quot; rel=&quot;nofollow&quot; target=&quot;_NEW&quot;&gt;\nhttp://imgfun.biz/x/img-53d4c19570814.html&lt;/a&gt;\n\n &lt;a href=&quot;\nhttp://imgfun.biz/x/img-53d4c1b0524ed.html&quot; rel=&quot;nofollow&quot; target=&quot;_NEW&quot;&gt;\nhttp://imgfun.biz/x/img-53d4c1b0524ed.html&lt;/a&gt;\n","torrent":{"xt":"urn:btih:f122c0dd274a642fac774fafb60f3d36c3b1de1a","amp;dn":"KICK+%282014%29+-+1CD+-+DVDSCR-Rip+-+Hindi+-+x264+-+MP3+-+Mafiaking+","amp;tr":["udp%3A%2F%2Ftracker.openbittorrent.com%3A80","udp%3A%2F%2Fopen.demonii.com%3A1337","udp%3A%2F%2Ftracker.coppersurfer.tk%3A6969","udp%3A%2F%2Fexodus.desync.com%3A6969"],"infoHash":"f122c0dd274a642fac774fafb60f3d36c3b1de1a","infoHashBuffer":{"type":"Buffer","data":[241,34,192,221,39,74,100,47,172,119,79,175,182,15,61,54,195,177,222,26]},"announce":[],"urlList":[]}}